<?xml version="1.0" encoding="utf-8"?>
<!-- Generator: Adobe Illustrator 23.0.0, SVG Export Plug-In . SVG Version: 6.00 Build 0)  -->
<svg version="1.1" id="Layer_1" xmlns="http://www.w3.org/2000/svg" xmlns:xlink="http://www.w3.org/1999/xlink" x="0px" y="0px"
	 viewBox="0 0 595.28 80.96" style="enable-background:new 0 0 595.28 80.96;" xml:space="preserve">
<style type="text/css">
	.st0{fill:#E20613;}
</style>
<g>
	<path class="st0" d="M6.54,66.77h2.51c2.51,0,6.15-1.38,6.15-4.45V21.36c0-3.07-3.64-4.45-6.15-4.45H8.06v-2.76
		c6.68,0.23,12.68,0.46,19.51,0.46c6.68,0,11.92-0.23,18.75-0.46L46.3,27.2l-2.38-0.01c-0.23-6.6-2.23-9.36-9.51-9.36h-9.57
		c-1.75,0-2.51,0.61-2.51,2.45v18.41h8.65c6.76,0,8.73,0.99,8.73-5.92h2.73c-0.23,3.22-0.1,4.73-0.1,7.65c0,2.91-0.13,5.41,0.1,8.64
		h-2.73c0-6.91-1.97-6.68-8.73-6.68h-8.65v21.02c0,1.84,0.76,2.45,2.51,2.45h11.99c6.19,0,9.43-1.84,11.5-10.13h3.15
		c-1.14,5.06-2.41,8.67-3.01,13.81c-7.21-0.23-13.25-0.18-21.22-0.18c-7.44,0-14.18-0.04-20.71,0.19V66.77z"/>
	<path class="st0" d="M106.62,66.7c-5.01,1.15-9.87,4.52-22.32,4.52c-17,0-27.78-12.58-27.78-28.61c0-14.81,9.31-29.56,29.81-29.56
		c8.42,0,19.01,2.32,19.01,2.32c-0.04,2.1,0,4.19,0.16,7.44c0.14,3.06,0.19,3.82,0.41,6.55h-2.47c-0.15-9.97-8.56-13.05-17.62-13.05
		c-7.44,0-20.53,5.97-20.53,25.15c0,13.96,9.3,25.62,22.66,25.62c10.7,0,10.78-3.46,10.78-5.75V49.74c0-3.14-1.57-3.19-5.82-3.19
		h-2.63v-3.07c3.47,0.05,19.33,0.02,21.77-0.02l-0.02,3.01l-1.14-0.01c-2.5,0-4.27,0.22-4.27,3.28V66.7z"/>
	<path class="st0" d="M135.06,41.92c-2.28,0-0.98,0-3.26,0.23v20.94c0,3.23,0.15,3.23,6.68,3.23c7.14,0,12.91-3.6,12.91-12.04
		C151.38,44.15,142.81,41.92,135.06,41.92 M137.04,17.37h-0.15c-4.63,0-5.09,0.61-5.09,4.06v17.02c2.51,0.16,2.13,0.23,4.86,0.23
		c7.06,0,11.54-1.92,11.54-10.51C148.2,20.9,144.18,17.37,137.04,17.37 M116.01,66.77h2.51c2.5,0,4.63-1.38,4.63-4.45V21.36
		c0-3.07-2.13-4.45-4.63-4.45h-1.75v-2.76h11.61h11.54c9.87,0,16.48,2.69,16.48,12.5c0,7.13-4.02,11.2-10.85,13.27v0.16
		c8.57,0.69,13.74,5.5,13.74,14.24c0,8.75-6.1,14.54-18.22,14.89c-5.26,0.14-6.02,0.07-10.5,0.07c-4.86,0-9.71,0.04-14.55,0.04
		V66.77z"/>
	<path class="st0" d="M188.85,23.68l-8.35,21.7h16.4L188.85,23.68z M197.42,48.6h-17.46l-5.16,12.12c-0.84,2.07-1.14,3.22-1.14,3.84
		c0,1.99,1.82,1.99,4.4,1.99h2.51v2.76c-2.87-0.03-6.18-0.01-9.49,0c-3.04,0.01-5.58,0-8.73,0v-2.76h1.21
		c3.19,0,4.86-1.69,7.06-6.82l18.82-46.72h2.58l17.91,47.87c2.04,5.18,4.58,5.66,9.42,5.67v2.76c-3.34,0-6.68,0-10.71,0
		c-4.4,0-8.12,0-11.23,0v-2.76h2.43c2.35,0,3.49,0,3.49-1.77c0-0.99-0.53-2.76-1.37-4.98L197.42,48.6z"/>
	<path class="st0" d="M573.95,68.68V57.37c0-2.05-0.57-3.7-1.83-4.92c-1.08-1.08-2.62-1.65-4.53-1.65c-1.98,0-3.7,0.72-4.96,2.15
		v-1.93h-2.58v17.67h2.58V57.8c0-3.09,1.72-4.71,4.39-4.71c2.66,0,4.35,1.58,4.35,4.71v10.88H573.95z M551.93,59.85
		c0,1.98-0.11,4.17-1.4,5.46c-0.83,0.83-1.98,1.29-3.23,1.29c-1.26,0-2.37-0.47-3.2-1.29c-1.29-1.3-1.44-3.49-1.44-5.46
		c0-1.98,0.14-4.17,1.44-5.46c0.83-0.83,1.94-1.29,3.2-1.29c1.26,0,2.41,0.47,3.23,1.29C551.83,55.68,551.93,57.87,551.93,59.85
		 M554.52,59.85c0-2.73-0.36-5.21-2.15-7.04c-1.22-1.22-2.91-2.01-5.07-2.01c-2.16,0-3.85,0.79-5.07,2.01
		c-1.79,1.83-2.15,4.31-2.15,7.04c0,2.73,0.36,5.21,2.15,7.04c1.22,1.22,2.91,2.01,5.07,2.01c2.16,0,3.84-0.79,5.07-2.01
		C554.16,65.06,554.52,62.58,554.52,59.85 M534.51,51.04h-2.58v17.65h2.58V51.04z M534.68,43.11h-2.91v2.91h2.91V43.11z
		 M526.78,68.68v-2.22h-1.37c-1.65,0-2.41-0.97-2.41-2.59V53.09h3.77v-1.97h-3.77v-5.53h-2.58v5.53h-2.23v1.97h2.23v10.85
		c0,2.63,1.51,4.74,4.52,4.74H526.78z M511.12,62.44c0,1.47-0.29,2.48-0.9,3.05c-1.11,1.08-2.45,1.19-3.96,1.19
		c-2.8,0-4.06-0.97-4.06-3.02c0-2.05,1.3-3.13,3.96-3.13h4.96V62.44z M513.7,68.68v-12c0-3.85-2.33-5.89-7.07-5.89
		c-2.87,0-4.67,0.57-6.25,2.62l1.76,1.62c1.04-1.48,2.19-2.01,4.46-2.01c3.24,0,4.53,1.3,4.53,3.88v1.69h-5.32
		c-3.95,0-6.1,2.01-6.1,5.1c0,1.4,0.47,2.73,1.33,3.59c1.11,1.15,2.55,1.61,4.99,1.61c2.37,0,3.67-0.46,5.1-1.9v1.68H513.7z
		 M494.59,51.04h-2.58v17.65h2.58V51.04z M494.77,43.11h-2.91v2.91h2.91V43.11z M487.08,66.28l-1.76-1.69
		c-1.33,1.47-2.37,2.01-4.06,2.01c-1.72,0-3.16-0.68-4.1-2.01c-0.83-1.15-1.15-2.52-1.15-4.75s0.32-3.59,1.15-4.75
		c0.93-1.33,2.37-2.01,4.1-2.01c1.69,0,2.73,0.5,4.06,1.98l1.76-1.65c-1.83-1.97-3.38-2.62-5.82-2.62c-4.45,0-7.83,3.01-7.83,9.05
		s3.37,9.05,7.83,9.05C483.71,68.9,485.25,68.26,487.08,66.28 M466.28,59.85c0,1.98-0.11,4.17-1.4,5.46
		c-0.83,0.83-1.98,1.29-3.24,1.29c-1.26,0-2.37-0.47-3.2-1.29c-1.29-1.3-1.44-3.49-1.44-5.46c0-1.98,0.14-4.17,1.44-5.46
		c0.83-0.83,1.94-1.29,3.2-1.29c1.26,0,2.41,0.47,3.24,1.29C466.18,55.68,466.28,57.87,466.28,59.85 M468.87,59.85
		c0-2.73-0.36-5.21-2.15-7.04c-1.22-1.22-2.91-2.01-5.07-2.01c-2.16,0-3.84,0.79-5.07,2.01c-1.79,1.83-2.15,4.31-2.15,7.04
		c0,2.73,0.36,5.21,2.15,7.04c1.22,1.22,2.91,2.01,5.07,2.01c2.16,0,3.85-0.79,5.07-2.01C468.51,65.06,468.87,62.58,468.87,59.85
		 M450.29,63.51c0-3.31-2.12-4.49-5.21-4.78l-2.84-0.25c-2.23-0.18-3.09-1.08-3.09-2.59c0-1.8,1.37-2.91,3.95-2.91
		c1.84,0,3.45,0.43,4.71,1.4l1.69-1.69c-1.58-1.29-3.84-1.9-6.36-1.9c-3.77,0-6.5,1.93-6.5,5.17c0,2.91,1.83,4.46,5.28,4.74
		l2.91,0.25c2.05,0.18,2.95,1.04,2.95,2.59c0,2.08-1.8,3.13-4.71,3.13c-2.19,0-4.1-0.57-5.49-2.05l-1.72,1.73
		c1.94,1.87,4.27,2.54,7.25,2.54C447.39,68.9,450.29,66.93,450.29,63.51 M433.05,63.51c0-3.31-2.11-4.49-5.21-4.78l-2.84-0.25
		c-2.23-0.18-3.09-1.08-3.09-2.59c0-1.8,1.37-2.91,3.96-2.91c1.83,0,3.45,0.43,4.71,1.4l1.69-1.69c-1.58-1.29-3.84-1.9-6.36-1.9
		c-3.78,0-6.5,1.93-6.5,5.17c0,2.91,1.83,4.46,5.28,4.74l2.91,0.25c2.05,0.18,2.95,1.04,2.95,2.59c0,2.08-1.8,3.13-4.71,3.13
		c-2.19,0-4.1-0.57-5.5-2.05l-1.72,1.73c1.94,1.87,4.27,2.54,7.25,2.54C430.15,68.9,433.05,66.93,433.05,63.51 M410.89,60.53h-9.56
		l4.81-13.51L410.89,60.53z M416.64,68.68l-9.38-25.57h-2.3l-9.41,25.57h2.91l2.05-5.78h11.17l2.05,5.78H416.64z M380.35,59.72
		c0,3.31-0.54,6.63-4.39,6.63c-3.84,0-4.42-3.32-4.42-6.63s0.58-6.63,4.42-6.63C379.81,53.09,380.35,56.41,380.35,59.72
		 M382.93,69.26V51.01h-2.54v2.08c-1.44-1.87-3.02-2.29-4.96-2.29c-1.8,0-3.38,0.61-4.31,1.54c-1.76,1.76-2.15,4.5-2.15,7.38
		s0.4,5.62,2.15,7.38c0.93,0.93,2.48,1.58,4.28,1.58c1.9,0,3.52-0.46,4.96-2.29v2.76c0,3-1.44,5.4-4.85,5.4
		c-2.05,0-2.95-0.61-4.24-1.75l-1.69,1.64c1.87,1.69,3.34,2.37,6,2.37C380.21,76.8,382.93,73.61,382.93,69.26 M363.61,68.68V57.37
		c0-2.05-0.57-3.7-1.83-4.92c-1.08-1.08-2.62-1.65-4.53-1.65c-1.98,0-3.7,0.72-4.96,2.15v-1.93h-2.58v17.67h2.58V57.8
		c0-3.09,1.72-4.71,4.38-4.71c2.66,0,4.35,1.58,4.35,4.71v10.88H363.61z M343.2,51.04h-2.58v17.65h2.58V51.04z M343.38,43.11h-2.9
		v2.91h2.9V43.11z M335.48,68.68v-2.22h-1.37c-1.65,0-2.41-0.97-2.41-2.59V53.09h3.77v-1.97h-3.77v-5.53h-2.58v5.53h-2.23v1.97h2.23
		v10.85c0,2.63,1.51,4.74,4.52,4.74H335.48z M323.55,68.68v-2.22h-1.37c-1.65,0-2.41-0.97-2.41-2.59V53.09h3.77v-1.97h-3.77v-5.53
		h-2.58v5.53h-2.23v1.97h2.23v10.85c0,2.63,1.51,4.74,4.52,4.74H323.55z M308.67,58.59h-9.34c0.07-1.44,0.14-1.98,0.54-2.95
		c0.68-1.62,2.26-2.66,4.13-2.66s3.45,1.04,4.13,2.66C308.53,56.61,308.6,57.15,308.67,58.59 M311.26,60.53v-1.18
		c0-5.25-2.69-8.55-7.26-8.55c-4.49,0-7.25,3.34-7.25,9.05c0,6.25,3.05,9.05,7.72,9.05c3.02,0,4.67-0.93,6.47-2.72l-1.76-1.55
		c-1.4,1.4-2.59,2.01-4.63,2.01c-3.38,0-5.21-2.23-5.21-6.11H311.26z M289.03,61.54c0,2.87-1.98,4.71-5.14,4.71h-6.97v-9.38h6.97
		C287.05,56.86,289.03,58.66,289.03,61.54 M288.63,49.97c0,3.05-2.19,4.46-5.03,4.46h-6.69v-8.88h6.69
		C286.44,45.55,288.63,46.91,288.63,49.97 M291.75,61.61c0-3.05-1.72-5.18-4.16-6.07c2.16-0.79,3.77-2.91,3.77-5.6
		c0-4.28-3.09-6.82-7.54-6.82h-9.63v25.57h9.95C288.66,68.68,291.75,66.25,291.75,61.61"/>
	<path class="st0" d="M578.82,28.09c-2.19,1.98-4.13,2.48-6.04,2.48c-3.16,0-5.39-2.05-5.39-5.1c0-2.91,2.19-4.35,4.38-5.86
		L578.82,28.09z M576.17,12.35c0,1.47-1.11,2.37-2.3,3.2c0,0-0.94,0.65-1.37,0.93c-1.69-2.05-2.3-3.02-2.3-4.2
		c0-1.72,1.19-2.98,2.95-2.98C574.87,9.3,576.17,10.63,576.17,12.35 M586.08,32.76l-3.91-4.7c1.65-1.98,2.33-4.6,2.37-7.83h-2.58
		c-0.04,2.87-0.4,4.28-1.44,5.86l-6.54-7.87c0.61-0.43,1.9-1.29,1.9-1.29c1.61-1.12,2.84-2.52,2.84-4.57c0-3.05-2.37-5.39-5.57-5.39
		c-3.27,0-5.64,2.3-5.64,5.35c0,2.3,1.51,4.06,2.76,5.57c-2.8,1.87-5.53,3.81-5.53,7.65c0,4.46,3.13,7.43,8.08,7.43
		c4.1,0,6.5-2.04,7.54-3.01l2.3,2.8H586.08z M548.63,23.8c0,3.31-0.54,6.63-4.38,6.63c-3.85,0-4.42-3.31-4.42-6.63
		c0-3.32,0.57-6.63,4.42-6.63C548.09,17.16,548.63,20.48,548.63,23.8 M551.21,33.33V15.08h-2.55v2.08c-1.44-1.87-3.02-2.3-4.96-2.3
		c-1.8,0-3.38,0.61-4.31,1.54c-1.76,1.76-2.15,4.5-2.15,7.39c0,2.88,0.4,5.62,2.15,7.38c0.93,0.93,2.48,1.58,4.28,1.58
		c1.91,0,3.52-0.47,4.96-2.3v2.76c0,3-1.44,5.4-4.85,5.4c-2.05,0-2.95-0.61-4.24-1.75l-1.69,1.64c1.87,1.68,3.34,2.37,6,2.37
		C548.48,40.88,551.21,37.69,551.21,33.33 M531.88,32.76V21.44c0-2.05-0.57-3.7-1.83-4.92c-1.08-1.07-2.62-1.65-4.53-1.65
		c-1.98,0-3.7,0.72-4.96,2.15v-1.94h-2.58v17.67h2.58V21.87c0-3.09,1.72-4.71,4.39-4.71c2.66,0,4.35,1.58,4.35,4.71v10.89H531.88z
		 M511.48,15.11h-2.58v17.65h2.58V15.11z M511.66,7.18h-2.91v2.91h2.91V7.18z M502.6,32.76V21.44c0-2.05-0.65-3.7-1.9-4.92
		c-1.08-1.04-2.66-1.65-4.56-1.65c-2.48,0-4.46,1.01-5.82,2.94c-1.08-1.94-2.98-2.94-5.43-2.94c-1.98,0-3.74,0.72-5,2.15v-1.94
		h-2.58v17.67h2.58V21.87c0-3.09,1.76-4.71,4.42-4.71c2.66,0,4.35,1.58,4.35,4.71v10.89h2.58V21.58c0-2.8,1.83-4.42,4.42-4.42
		c2.66,0,4.35,1.58,4.35,4.71v10.89H502.6z M468.44,26.51c0,1.48-0.29,2.48-0.9,3.06c-1.11,1.08-2.44,1.19-3.95,1.19
		c-2.81,0-4.06-0.97-4.06-3.02c0-2.05,1.29-3.13,3.96-3.13h4.96V26.51z M471.02,32.76v-12c0-3.85-2.33-5.89-7.07-5.89
		c-2.88,0-4.67,0.57-6.25,2.62l1.76,1.62c1.04-1.48,2.19-2.01,4.46-2.01c3.23,0,4.53,1.29,4.53,3.88v1.69h-5.32
		c-3.96,0-6.1,2.01-6.1,5.1c0,1.4,0.46,2.73,1.33,3.59c1.11,1.15,2.55,1.61,4.99,1.61c2.37,0,3.66-0.47,5.1-1.9v1.69H471.02z
		 M452.52,23.42v-4.06h-9.01v2.4h6.28v1.94c0,1.98-0.4,3.38-1.44,4.64c-1.19,1.44-2.98,2.19-4.85,2.19c-1.69,0-3.31-0.65-4.42-1.8
		c-1.62-1.65-1.8-3.41-1.8-8.77s0.18-7.08,1.8-8.73c1.11-1.15,2.73-1.83,4.42-1.83c3.19,0,5.49,1.98,6.21,5.21h2.73
		c-0.75-4.49-4.06-7.65-8.94-7.65c-2.55,0-4.82,0.93-6.54,2.66c-2.4,2.41-2.4,4.93-2.4,10.35s0,7.94,2.4,10.35
		c1.73,1.72,4.03,2.66,6.54,2.66c2.62,0,5.03-1,6.82-2.94C451.91,28.34,452.52,26.36,452.52,23.42 M419.82,32.76V21.44
		c0-2.05-0.57-3.7-1.83-4.92c-1.07-1.07-2.62-1.65-4.53-1.65c-1.98,0-3.7,0.72-4.96,2.15v-1.94h-2.58v17.67h2.58V21.87
		c0-3.09,1.73-4.71,4.39-4.71c2.66,0,4.35,1.58,4.35,4.71v10.89H419.82z M397.05,26.51c0,1.48-0.29,2.48-0.9,3.06
		c-1.11,1.08-2.45,1.19-3.96,1.19c-2.8,0-4.06-0.97-4.06-3.02c0-2.05,1.29-3.13,3.95-3.13h4.96V26.51z M399.64,32.76v-12
		c0-3.85-2.33-5.89-7.08-5.89c-2.87,0-4.67,0.57-6.25,2.62l1.76,1.62c1.04-1.48,2.19-2.01,4.45-2.01c3.24,0,4.53,1.29,4.53,3.88
		v1.69h-5.32c-3.95,0-6.1,2.01-6.1,5.1c0,1.4,0.47,2.73,1.33,3.59c1.11,1.15,2.55,1.61,4.99,1.61c2.37,0,3.67-0.47,5.1-1.9v1.69
		H399.64z M378.94,22.67h-9.34c0.07-1.44,0.14-1.98,0.54-2.95c0.68-1.62,2.26-2.66,4.13-2.66c1.87,0,3.45,1.04,4.13,2.66
		C378.8,20.69,378.87,21.23,378.94,22.67 M381.53,24.6v-1.18c0-5.25-2.69-8.55-7.26-8.55c-4.49,0-7.25,3.34-7.25,9.05
		c0,6.25,3.05,9.05,7.72,9.05c3.02,0,4.67-0.93,6.47-2.73l-1.76-1.54c-1.4,1.4-2.59,2.01-4.63,2.01c-3.38,0-5.21-2.23-5.21-6.11
		H381.53z M359.87,23.92c0,3.45-0.57,6.75-4.42,6.75c-3.84,0-4.46-3.31-4.46-6.75c0-3.45,0.61-6.76,4.46-6.76
		C359.29,17.16,359.87,20.47,359.87,23.92 M362.45,23.92c0-2.77-0.36-5.72-2.15-7.51c-0.93-0.93-2.51-1.54-4.31-1.54
		c-1.94,0-3.56,0.43-4.99,2.3v-2.08h-2.58v25.58h2.58v-9.98c1.44,1.83,3.05,2.3,4.99,2.3c1.8,0,3.38-0.61,4.31-1.54
		C362.09,29.63,362.45,26.69,362.45,23.92 M340.29,23.92c0,1.98-0.11,4.17-1.4,5.46c-0.83,0.83-1.98,1.29-3.24,1.29
		c-1.26,0-2.37-0.47-3.2-1.29c-1.29-1.29-1.44-3.48-1.44-5.46c0-1.98,0.14-4.17,1.44-5.46c0.83-0.83,1.94-1.29,3.2-1.29
		c1.26,0,2.41,0.47,3.24,1.29C340.18,19.75,340.29,21.95,340.29,23.92 M342.87,23.92c0-2.73-0.36-5.21-2.15-7.04
		c-1.22-1.22-2.91-2.01-5.07-2.01c-2.16,0-3.84,0.79-5.07,2.01c-1.79,1.83-2.15,4.31-2.15,7.04c0,2.73,0.36,5.21,2.15,7.04
		c1.22,1.22,2.91,2.01,5.07,2.01c2.16,0,3.85-0.79,5.07-2.01C342.51,29.13,342.87,26.65,342.87,23.92 M327.25,16.52
		c-1.26-1.25-2.55-1.65-4.24-1.65c-2.05,0-3.99,0.9-4.96,2.37v-2.15h-2.58v17.67h2.58V21.91c0-2.69,1.65-4.74,4.24-4.74
		c1.37,0,2.08,0.32,3.05,1.29L327.25,16.52z M309,32.76V15.09h-2.58v10.88c0,3.09-1.76,4.71-4.42,4.71c-2.66,0-4.31-1.58-4.31-4.71
		V15.09h-2.58v11.28c0,2.05,0.54,3.74,1.79,4.96c1.08,1.07,2.66,1.65,4.57,1.65c1.98,0,3.74-0.75,4.99-2.19v1.97H309z M290.06,32.76
		v-2.44h-13.15v-9.24h11.21v-2.44h-11.21V9.62h13.15V7.18h-15.88v25.58H290.06z"/>
</g>
<rect x="244" y="8.63" class="st0" width="5.6" height="61.1"/>
</svg>
